<?xml version="1.0" encoding="utf-8"?>
<svg viewBox="720.706 0.122 289.414 265.775" xmlns="http://www.w3.org/2000/svg">
  <path d="M 903.906 2.7 C 949.206 11.6 985.906 43.1 1002.206 87 C 1008.506 104.2 1010.106 112.8 1010.106 132.1 C 1010.206 146.5 1009.806 150.8 1007.806 159.9 C 1006.506 165.9 1004.706 171.4 1003.906 172.3 C 1002.606 173.6 1002.506 174.5 1003.506 178 C 1007.006 189.8 1007.906 196.4 1007.406 205.1 C 1004.906 246.9 964.106 274.8 923.806 262.1 C 917.706 260.1 916.206 260 915.106 261 C 912.006 264.2 899.006 264.6 809.706 264.6 L 720.706 264.6 L 720.906 205.4 L 721.206 146.2 L 733.306 142.2 L 745.506 138.2 L 746.206 126.7 C 748.206 92.6 760.506 64.2 783.406 40.5 C 815.006 7.9 859.406 -6.1 903.906 2.7 Z" style="fill: rgb(139, 243, 243);"/>
  <path d="M 977.871 209.665 C 976.031 219.07 964.17 232.158 954.765 235.429 C 931.863 242.995 907.12 225.41 907.12 201.485 C 907.12 188.602 913.663 177.151 924.705 170.608 C 951.084 154.658 983.596 178.583 977.871 209.665 Z M 922.253 139.323 C 906.098 144.434 890.966 157.522 883.196 173.267 C 878.697 182.673 877.675 187.785 877.675 199.236 C 877.47 219.889 882.788 233.385 895.669 246.676 C 904.462 255.673 908.347 258.127 921.229 261.807 C 948.425 270.191 972.759 264.056 990.754 244.222 C 1002.408 231.544 1007.316 219.07 1007.316 201.893 C 1007.316 169.586 989.527 146.07 958.854 138.096 C 943.927 134.211 937.588 134.415 922.253 139.323 Z M 747.216 137.278 C 745.784 137.278 739.241 139.323 732.901 141.572 L 721.042 145.661 L 721.042 265.897 L 749.67 265.897 L 749.67 201.485 C 749.67 151.182 749.056 137.073 747.216 137.278 Z M 791.997 137.073 L 761.529 137.073 L 762.756 143.616 C 763.983 149.751 770.117 166.519 796.7 235.225 L 808.152 264.875 L 819.398 265.488 C 826.963 265.897 831.462 265.078 832.894 263.443 C 834.121 262.011 837.8 253.014 841.277 243.404 C 844.753 233.793 854.977 206.392 863.974 182.469 C 873.176 158.544 880.538 138.505 880.538 138.096 C 880.538 137.483 873.381 137.073 864.384 137.073 L 848.229 137.073 L 842.096 154.863 C 838.619 164.882 832.484 182.469 828.19 193.92 L 820.625 215.186 L 817.966 208.233 C 815.717 202.507 806.72 177.765 795.269 145.661 L 791.997 137.073 Z" style="fill: rgb(242, 144, 87);"/>
</svg>