<?xml version="1.0" encoding="utf-8"?>
<svg viewBox="373.139 130.471 140 63.823" xmlns="http://www.w3.org/2000/svg">
  <path d="M 498.739 166.794 C 497.839 171.394 492.039 177.794 487.439 179.394 C 476.239 183.094 464.139 174.494 464.139 162.794 C 464.139 156.494 467.339 150.894 472.739 147.694 C 485.639 139.894 501.539 151.594 498.739 166.794 Z M 471.539 132.394 C 463.639 134.894 456.239 141.294 452.439 148.994 C 450.239 153.594 449.739 156.094 449.739 161.694 C 449.639 171.794 452.239 178.394 458.539 184.894 C 462.839 189.294 464.739 190.494 471.039 192.294 C 484.339 196.394 496.239 193.394 505.039 183.694 C 510.739 177.494 513.139 171.394 513.139 162.994 C 513.139 147.194 504.439 135.694 489.439 131.794 C 482.139 129.894 479.039 129.994 471.539 132.394 Z M 385.939 131.394 C 385.239 131.394 382.039 132.394 378.939 133.494 L 373.139 135.494 L 373.139 194.294 L 387.139 194.294 L 387.139 162.794 C 387.139 138.194 386.839 131.294 385.939 131.394 Z M 407.839 131.294 L 392.939 131.294 L 393.539 134.494 C 394.139 137.494 397.139 145.694 410.139 179.294 L 415.739 193.794 L 421.239 194.094 C 424.939 194.294 427.139 193.894 427.839 193.094 C 428.439 192.394 430.239 187.994 431.939 183.294 C 433.639 178.594 438.639 165.194 443.039 153.494 C 447.539 141.794 451.139 131.994 451.139 131.794 C 451.139 131.494 447.639 131.294 443.239 131.294 L 435.339 131.294 L 432.339 139.994 C 430.639 144.894 427.639 153.494 425.539 159.094 L 421.839 169.494 L 420.539 166.094 C 419.439 163.294 415.039 151.194 409.439 135.494 Z" style="fill: rgb(255, 255, 255);"/>
</svg>